<svg xmlns="http://www.w3.org/2000/svg" width="30.592" height="41.66" viewBox="0 0 30.592 41.66"><defs><style>.a{fill:#fff;}</style></defs><g transform="translate(-16.954 -5)"><circle class="a" cx="6.404" cy="6.404" r="6.404" transform="translate(25.847 5)"/><path class="a" d="M58.773,64.645,54.4,68.3l3.3,2.239-3.5,4.269h0l0,0a2.3,2.3,0,0,0,3.548,2.923h0l4.69-5.717a2.486,2.486,0,0,0-.132-3.656Z" transform="translate(-19.604 -31.914)"/><path class="a" d="M46.908,44.979l-8.534-8.46a2.463,2.463,0,0,0-1.74-.714H27.867a2.465,2.465,0,0,0-1.74.714l-8.534,8.46a2.14,2.14,0,0,0-.639,1.526,2.179,2.179,0,0,0,3.713,1.525l4.739-4.7v3.418H39.095V43.332l4.739,4.7A2.179,2.179,0,0,0,47.546,46.5,2.135,2.135,0,0,0,46.908,44.979Z" transform="translate(0 -16.489)"/><path class="a" d="M34.6,74.812h0l-3.5-4.269L34.4,68.3l-4.37-3.66-3.53,3.719a2.486,2.486,0,0,0-.132,3.656l4.69,5.717h0A2.3,2.3,0,0,0,34.6,74.815Z" transform="translate(-4.693 -31.913)"/></g></svg>