<svg xmlns="http://www.w3.org/2000/svg" width="30.639" height="43.339" viewBox="0 0 30.639 43.339"><defs><style>.a{fill:#fff;}</style></defs><g transform="translate(-84.58 -51.185)"><g transform="translate(50 25.709)"><circle class="a" cx="5.137" cy="5.137" r="5.137" transform="translate(43.41 25.476)"/><path class="a" d="M63.935,53.648a1.87,1.87,0,0,0-.1-.414c-.215-1.2-1.423-1.929-2.936-2.224L56,50.156l-.964-9.827a2.891,2.891,0,0,0-3.224-2.373L47.19,38.3a2.735,2.735,0,0,0-2.715,2.819l.451,4.6C38.978,47.12,34.58,51.865,34.58,57.5c0,6.735,6.268,12.215,13.972,12.215A14.586,14.586,0,0,0,60.16,64.288l.315,1.081a2.316,2.316,0,0,0,2.6,1.866,2.174,2.174,0,0,0,2.133-2.274ZM48.551,67.111c-6.061,0-10.991-4.311-10.991-9.609,0-4.272,3.207-7.9,7.625-9.143l.556,5.66A2.789,2.789,0,0,0,48.3,56.372a3.358,3.358,0,0,0,.64.063h8.932L59.026,60.4C57.615,64.288,53.453,67.111,48.551,67.111Z" transform="translate(0 -0.901)"/></g></g></svg>