<svg xmlns="http://www.w3.org/2000/svg" width="16.494" height="16.483" viewBox="0 0 16.494 16.483"><defs><style>.a{fill:#0b1a27;}</style></defs><path class="a" d="M17.561,6.968a4.733,4.733,0,1,0-9.467,0c0,2.614,4.733,8.166,4.733,8.166S17.561,9.582,17.561,6.968Zm-7.421-.16A2.688,2.688,0,1,1,12.827,9.5,2.688,2.688,0,0,1,10.139,6.808Z" transform="translate(-4.58 -2.235)"/><path class="a" d="M15.924,18.031h-1.83a40.374,40.374,0,0,1-2.974,4l-.648.762-.649-.762a40.237,40.237,0,0,1-2.973-4H5.02L2.225,25.057H18.719Z" transform="translate(-2.225 -8.574)"/></svg>