<svg xmlns="http://www.w3.org/2000/svg" width="44.828" height="52.785" viewBox="0 0 44.828 52.785"><defs><style>.a{fill:#fff;}</style></defs><path class="a" d="M4.15,9.887V42.248l13.144,5.6V17.826c-.656-1.029-1.29-2.084-1.865-3.14Z" transform="translate(-4.15 4.943)"/><path class="a" d="M24.377,10.669a42.816,42.816,0,0,1-3.477,6.46V41.55l13.144,5.6V14.783Z" transform="translate(10.783 5.64)"/><path class="a" d="M19.1,24.326,17.048,21.92c-.732-.857-2.535-3.023-4.523-5.756V42.246l13.146-5.6V16.166c-1.988,2.731-3.791,4.9-4.521,5.754Z" transform="translate(3.317 10.539)"/><path class="a" d="M32.579,13.315a11.268,11.268,0,1,0-22.536,0c0,6.223,11.27,19.441,11.27,19.441S32.579,19.538,32.579,13.315Zm-17.667-.38a6.4,6.4,0,1,1,6.4,6.4A6.4,6.4,0,0,1,14.912,12.935Z" transform="translate(1.104 -2.047)"/></svg>