<svg xmlns="http://www.w3.org/2000/svg" width="65.52" height="65.533" viewBox="0 0 65.52 65.533"><defs><style>.a{fill:#303c47;}</style></defs><path class="a" d="M63.143,14.04c.007-.052-12.286-.151-12.286-.151a4.393,4.393,0,0,1-.169-.837,4.505,4.505,0,0,1,4.5-4.5,4.444,4.444,0,0,1,4.333,3.663h3.635a8.031,8.031,0,0,0-16.02.837,8.1,8.1,0,0,0,.084.837h-30.4a4.337,4.337,0,0,1-.169-.837,4.5,4.5,0,0,1,4.5-4.5,4.444,4.444,0,0,1,4.333,3.663h3.635a8.03,8.03,0,0,0-16.02.837,7.677,7.677,0,0,0,.091.906,8.88,8.88,0,0,0-8.191,8.809V61.652a8.9,8.9,0,0,0,8.878,8.878H61.648a8.9,8.9,0,0,0,8.878-8.878V22.767A8.894,8.894,0,0,0,63.143,14.04Zm1.613,9.695V62.442h-.165a3.115,3.115,0,0,1-2.944,2.319H13.884a3.116,3.116,0,0,1-2.944-2.319h-.165v-39.5h.165a3.116,3.116,0,0,1,2.944-2.319H61.648a3.118,3.118,0,0,1,2.944,2.319h.165v.79Z" transform="translate(-5.006 -4.997)"/><rect class="a" width="44.761" height="5.734" transform="translate(10.739 22.757)"/><rect class="a" width="44.761" height="5.734" transform="translate(10.739 34.039)"/><rect class="a" width="32.369" height="5.734" transform="translate(10.739 45.322)"/></svg>