<?xml version="1.0" encoding="UTF-8"?>
<svg xmlns="http://www.w3.org/2000/svg" xmlns:xlink="http://www.w3.org/1999/xlink" width="60pt" height="67pt" viewBox="0 0 60 67" version="1.1">
<g id="surface1">
<path style=" stroke:none;fill-rule:nonzero;fill:rgb(0%,0%,0%);fill-opacity:1;" d="M 39.457031 58.734375 L 56.105469 58.734375 C 58.128906 58.734375 59.765625 57.109375 59.765625 55.101562 C 59.765625 53.097656 58.128906 51.472656 56.105469 51.472656 C 55.554688 51.46875 55.085938 51.070312 55 50.527344 L 51.328125 28.144531 C 50.492188 22.25 47.832031 16.761719 43.714844 12.433594 C 42.28125 11.003906 40.636719 9.796875 38.839844 8.851562 C 38.839844 3.9375 34.828125 -0.046875 29.878906 -0.046875 C 24.925781 -0.046875 20.914062 3.9375 20.914062 8.851562 C 19.121094 9.796875 17.480469 11.003906 16.050781 12.433594 C 11.933594 16.761719 9.273438 22.25 8.4375 28.144531 L 4.777344 50.453125 C 4.730469 51.027344 4.246094 51.472656 3.664062 51.472656 C 2.195312 51.464844 0.863281 52.335938 0.289062 53.679688 C -0.285156 55.019531 0.00390625 56.574219 1.027344 57.625 L 1.074219 57.671875 C 1.761719 58.351562 2.691406 58.734375 3.664062 58.734375 Z M 33.988281 7.113281 C 31.28125 6.558594 28.484375 6.558594 25.773438 7.113281 C 26 6.605469 26.316406 6.144531 26.710938 5.75 C 27.757812 4.710938 29.257812 4.25 30.714844 4.523438 C 32.171875 4.796875 33.398438 5.765625 33.988281 7.113281 Z M 37.136719 60.960938 L 22.632812 60.960938 C 23.183594 64.511719 26.261719 67.136719 29.882812 67.136719 C 33.507812 67.136719 36.585938 64.511719 37.136719 60.960938 Z M 37.136719 60.960938 "/>
</g>
</svg>
