<svg xmlns="http://www.w3.org/2000/svg" width="47.814" height="47.337" viewBox="0 0 47.814 47.337"><defs><style>.a{fill:#fff;}</style></defs><path class="a" d="M60.2,50.066A12.419,12.419,0,0,0,72.464,37.8a11.6,11.6,0,0,0-1.109-4.931l-.616-1.541a1.534,1.534,0,0,0-1.109-.925,1.382,1.382,0,0,0-1.356.431l-6.657,6.6a.833.833,0,0,1-1.418-.555,1.108,1.108,0,0,1,.247-.555l6.6-6.6a1.589,1.589,0,0,0,.431-1.356,1.534,1.534,0,0,0-.925-1.109l-1.541-.678a12.128,12.128,0,0,0-17.2,11.156h0a9.087,9.087,0,0,0-12.2.555l-8.321,8.444a9.115,9.115,0,0,0,0,12.82l1.233,1.233-1.541,1.541a6.1,6.1,0,1,0,8.629,8.629l1.541-1.541,2.219,2.219a3.547,3.547,0,0,0,2.527.925,4.471,4.471,0,0,0,3.267-1.356,4.211,4.211,0,0,0,1.109-1.972c.185,0,.308.062.493.062a4.471,4.471,0,0,0,3.267-1.356A4.526,4.526,0,0,0,51.2,65.906a2.529,2.529,0,0,0,.678.062,4.344,4.344,0,0,0,3.082-1.294A4.526,4.526,0,0,0,56.13,62.64a2.528,2.528,0,0,0,.678.062,4.344,4.344,0,0,0,3.082-1.294,4.39,4.39,0,0,0,0-6.225L55.575,50.99l1.418-1.418A11.564,11.564,0,0,0,60.2,50.066ZM33.448,68.8a3.051,3.051,0,1,1-4.315-4.315l1.541-1.541,2.281,2.281L34.927,67.2ZM55.514,46.737l-2.1,2.1L49.1,44.519l2.1-2.1a1.553,1.553,0,0,0,.37-1.6,8.011,8.011,0,0,1-.616-3.02,9.288,9.288,0,0,1,9.184-9.184,8.309,8.309,0,0,1,3.082.616l-4.993,4.993a3.879,3.879,0,0,0,5.486,5.486L68.7,34.718A8.309,8.309,0,0,1,69.32,37.8a9.288,9.288,0,0,1-9.184,9.184,7.568,7.568,0,0,1-3.02-.616A1.553,1.553,0,0,0,55.514,46.737Z" transform="translate(-24.649 -25.473)"/></svg>