<svg xmlns="http://www.w3.org/2000/svg" width="26.74" height="35.674" viewBox="0 0 26.74 35.674">
  <defs>
    <style>
      .cls-1 {
        fill: #fff;
      }
    </style>
  </defs>
  <g id="Group_176" data-name="Group 176" transform="translate(-9.929 -65.101)">
    <path id="Path_180" data-name="Path 180" class="cls-1" d="M48.044,9.274a1.306,1.306,0,0,1-1.337,1.274H37.348V14.37h1.337a1.307,1.307,0,0,1,1.337,1.274v3.822H32V15.644a1.307,1.307,0,0,1,1.337-1.274h1.337V10.548H33.337a1.276,1.276,0,1,1,0-2.548h13.37A1.306,1.306,0,0,1,48.044,9.274Z" transform="translate(-16.723 57.101)"/>
    <path id="Path_181" data-name="Path 181" class="cls-1" d="M73.348,27.778a2.68,2.68,0,1,1-5.348,0C68,26.194,70.674,23,70.674,23S73.348,26.194,73.348,27.778Z" transform="translate(-36.679 48.471)"/>
    <path id="Path_182" data-name="Path 182" class="cls-1" d="M34.707,41h-10.7A3.92,3.92,0,0,0,20,44.822V62.659H38.718V44.822A3.92,3.92,0,0,0,34.707,41ZM33.37,52.466H30.7v2.548H28.022V52.466H25.348V49.918h2.674V47.37H30.7v2.548H33.37Z" transform="translate(-10.071 38.115)"/>
  </g>
</svg>
