<svg xmlns="http://www.w3.org/2000/svg" width="60.055" height="60.055" viewBox="0 0 60.055 60.055"><defs><style>.a{fill:#fff;fill-rule:evenodd;}</style></defs><path class="a" d="M52.354,48.852A22.583,22.583,0,0,0,43.2,42.535c.883,3.4,1.74,7.137.228,10.307a8.671,8.671,0,0,1-4.965,4.3,8.96,8.96,0,0,1-3.027.494,8.81,8.81,0,0,1-7.811-4.452c-1.682-3.272-.894-7.222.057-10.776a22.727,22.727,0,0,0-9.73,6.737,21.182,21.182,0,0,1-4.965-11.8l4.086-.038q.11-2.284,0-4.571l-4.162,0a15.731,15.731,0,0,1,1.454-6.062,26.69,26.69,0,0,1,3.358-5.148,14.2,14.2,0,0,1,3,2.448l3.249-3.249L21.1,17.805a21.306,21.306,0,0,1,11.615-4.816q.019,2.041.038,4.083,2.279.11,4.561,0,.02-2.041.039-4.083a21.3,21.3,0,0,1,11.622,4.821l-2.838,2.923q1.53,1.689,3.216,3.228l2.9-2.867a21.31,21.31,0,0,1,4.816,11.615l-4.083.039q-.11,2.278,0,4.561l4.083.039a21.2,21.2,0,0,1-4.71,11.5ZM35.027,5A30.027,30.027,0,1,0,65.055,35.027,30.027,30.027,0,0,0,35.027,5ZM37.55,27.845a2.139,2.139,0,0,0-4.232,0l-4,19.54a9.923,9.923,0,0,0-.083,2.128,5.917,5.917,0,0,0,6.194,5.594,5.917,5.917,0,0,0,6.194-5.594,9.88,9.88,0,0,0-.082-2.128Z" transform="translate(-5 -5)"/></svg>