<svg xmlns="http://www.w3.org/2000/svg" width="26.181" height="32.91" viewBox="0 0 26.181 32.91">
  <g id="Group_352" data-name="Group 352" transform="translate(-244.311 -256.446)">
    <path id="Path_183" data-name="Path 183" d="M13.873,47.706l1.657,1.556,2.341,1.274,2.852.894,3.172.441,3.272-.028,3.137-.51,2.687-.913L31.85,35.949,23.86,34.83h0l-3.2-.454-.009,0-.018,0-2.882-.9a.121.121,0,0,1-.018-.01.081.081,0,0,1-.013,0l-2.375-1.292a.167.167,0,0,1-.017-.014.217.217,0,0,1-.019-.012l-1.695-1.6a.15.15,0,0,1-.026-.037s-.007-.005-.009-.009l-.649-1.276V44.154l.061,1.818Z" transform="translate(231.379 237.485)" fill="#fff"/>
    <path id="Path_184" data-name="Path 184" d="M17.789,5.12,15.4,6.546,13.753,8.267l-.817,1.888L13,12.085l.931,1.872,1.752,1.688,2.476,1.378,3.018.962,3.353.486,3.461-.035,3.318-.552,2.955-1.027,2.389-1.426L38.3,13.71l.817-1.888-.058-1.931-.931-1.871L36.37,6.333,33.894,4.955l-3.018-.962-3.353-.486-3.461.035-3.318.552Zm4.084,5.72a.188.188,0,0,1,0-.037.167.167,0,0,1,0-.033v0l.207-.587a.193.193,0,0,1,.019-.032.168.168,0,0,1,.015-.026l0,0h0l.463-.533a.2.2,0,0,1,.02-.015.139.139,0,0,1,.018-.018l.689-.45a.155.155,0,0,1,.018-.007.192.192,0,0,1,.017-.01l.871-.329.015,0,.014-.006.987-.193c.005,0,.01,0,.015,0l.013,0L26.3,8.513c.006,0,.01,0,.015,0h.012l1.023.121c.005,0,.009,0,.014,0h.015l.926.268a.171.171,0,0,1,.016.008l.017,0,.775.4a.122.122,0,0,1,.017.013.124.124,0,0,1,.019.011l.577.5a.167.167,0,0,1,.018.024.171.171,0,0,1,.02.023l.324.567h0a.155.155,0,0,1,.011.035.173.173,0,0,1,.011.034h0l.066.6a.018.018,0,0,1,0,0,.188.188,0,0,1,0,.037.167.167,0,0,1,0,.033v0l-.207.587s0,0,0,.005a.171.171,0,0,1-.03.053l-.466.537a.159.159,0,0,1-.018.013.15.15,0,0,1-.02.02l-.689.45s-.008,0-.013,0a.138.138,0,0,1-.022.014l-.871.329-.017,0s-.008,0-.013.005l-.987.193-.025,0h0l-1.038.035h-.028L24.7,13.343l-.009,0-.019,0-.932-.268a.17.17,0,0,1-.018-.009c-.005,0-.01,0-.015,0l-.775-.4c-.006,0-.009-.008-.014-.012a.155.155,0,0,1-.021-.012l-.577-.5a.165.165,0,0,1-.028-.037s-.007-.006-.01-.01l-.324-.567v0a.189.189,0,0,1-.017-.05.126.126,0,0,1,0-.015h0l-.066-.6S21.873,10.841,21.873,10.84Z" transform="translate(231.375 252.94)" fill="#fff"/>
    <path id="Path_185" data-name="Path 185" d="M57.928,36.1a.171.171,0,0,1,.035.013.168.168,0,0,1,.027.015.177.177,0,0,1,.027.024.224.224,0,0,1,.02.025.189.189,0,0,1,.015.031.159.159,0,0,1,.01.035c0,.005,0,.01,0,.015L59.275,51.9l2.155-1.286L63.077,48.9l.818-1.891V29.117l-.5,1.156s-.005,0-.007.008a.179.179,0,0,1-.028.045l-1.687,1.762a.232.232,0,0,1-.019.013.17.17,0,0,1-.019.017L59.21,33.566s-.009,0-.013,0a.184.184,0,0,1-.02.012L56.189,34.62a.147.147,0,0,1-.018,0l-.012,0-3.347.557-.027,0h0l-1.129.012,6.257.9A.125.125,0,0,1,57.928,36.1Z" transform="translate(206.598 235.708)" fill="#fff"/>
  </g>
</svg>
