<svg xmlns="http://www.w3.org/2000/svg" width="37.243" height="37.243" viewBox="0 0 37.243 37.243"><defs><style>.a{opacity:0.8;}.b{fill:#ebebeb;}</style></defs><g class="a" transform="translate(-6.993 3.47)"><g transform="translate(6.993 -3.47)"><path class="b" d="M.529,289.063v21.282H21.811V289.063Zm2.66,2.66H19.15v15.961H3.189Zm6.65,1.33v2.66H4.519v2.66H7.252a8.825,8.825,0,0,0,1.777,4.507,11.8,11.8,0,0,1-4.51.813v2.66a12.962,12.962,0,0,0,6.65-1.582,12.961,12.961,0,0,0,6.65,1.582v-2.66a11.806,11.806,0,0,1-4.51-.813,8.826,8.826,0,0,0,1.777-4.507H17.82v-2.66H12.5v-2.66Zm.091,5.32h2.478a5.476,5.476,0,0,1-1.239,3,5.476,5.476,0,0,1-1.239-3Zm14.54,6.65v2.66H35.112v15.961H19.15V313H16.49v13.3H37.772V305.024Zm1.33,3.99-5.32,13.3h2.66l1.065-2.66h5.85l1.065,2.66h2.66l-5.32-13.3Zm1.33,3.325,1.863,4.655H25.268Z" transform="translate(-0.529 -289.063)"/></g></g></svg>